<svg height="2486" viewBox="1.86 13.09 658.07 665.73" width="2500" xmlns="http://www.w3.org/2000/svg"><path d="m320.59 466.93-62.15-.1s-2.05-7.61-5.2-13.9c-7.14-14.08-18.69-23.5-33.2-28.66-37.98-13.52-76.21-13.54-114.26-.04-10.58 3.75-19.24 10.59-26.07 19.45-8.27 10.73-6.21 20.53 6.31 25.58 7.85 3.16 16.59 4.67 25.07 5.6 31.23 3.44 62.62 5.61 93.77 9.66 24 3.12 48.04 7.09 71.53 12.87 45.78 11.27 58.03 56.34 42.35 92.26-14.36 32.89-40.02 53.69-72.34 67.08-34.08 14.13-69.79 17.28-106.23 14.48-25.79-1.98-50.58-7.88-73.37-20.48-36.17-20.01-56.71-50.7-61.78-91.73-.12-.99-.37-5.26-.37-5.26h62.3s.13 1.88.29 2.95c3.25 21.27 16.19 34.76 35.01 43.38 16.3 7.47 33.72 10.07 51.42 10.74 23.76.9 47.19-1.26 69.68-9.68 11.7-4.38 22.25-10.51 29.51-21.16 5.47-8.03 4.75-15.63-2.24-22.4-6.5-6.29-14.7-9.25-23.31-10.44-23.7-3.29-47.46-6.23-71.23-9.03-30.69-3.61-61.66-5.51-91.72-13.14-8.9-2.26-17.78-5.85-25.7-10.49-27.01-15.83-36.8-44.5-26.19-76.17 11.35-33.87 35.25-56.08 67.43-69.94 32.56-14.02 66.86-16.63 101.74-14.36 27.5 1.79 53.93 7.81 78.18 21.46 33.39 18.8 53.31 47.21 60.15 84.85.35 1.92.62 6.62.62 6.62zm143.31-112.24v51.46h149.57v60.12c-2.3 0-209.3-.1-209.3-.1s-.03 13.04-.05 16.69c-.08 18.8-.04 37.6-.04 56.41 0 34.42 14.76 54.95 47.79 64.86 31.99 9.59 64.36 9.55 96.46.61 27.9-7.77 46.2-24.93 49.74-55.24h61.86c-.54 5.25-.8 10.47-1.64 15.6-7.85 47.88-35.89 79.55-80.71 95.38-51.92 18.34-104.68 18.29-156.18-1.82-43.26-16.89-69.5-48.88-76.63-95.43-.88-5.73-1.31-11.58-1.35-17.38-.16-20.46-.06-40.93-.06-61.4 0-57.69 29.73-100.26 84.16-119.65 11.51-4.1 23.59-6.59 36.38-10.08zm-121.54-341.6h61.24s-.19 126.88-.02 186.95c.02 6.93.73 13.99 2.23 20.75 4.36 19.64 17.38 32.06 35.26 39.82 22.82 9.89 46.9 11.7 71.38 10.41 14.84-.78 29.41-3.13 43.37-8.47 28.25-10.8 41.81-30.49 41.81-60.71v-188.59h61.28s.74 130.22-.39 193.76c-.95 53.55-28.08 90.55-77.23 111.18-32.15 13.49-66.04 15.94-100.41 13.64-25.09-1.68-49.37-7-71.88-18.63-43.31-22.37-65.68-58.5-66.41-106.78-.95-63.05-.23-193.31-.23-193.31zm-336.11 200.68h61.18c.46 1.93.93 3.97 1.44 5.99 4.79 19.13 16.81 32.09 34.51 40.07 21.46 9.67 44.24 11.48 67.36 10.89 18.42-.48 36.39-3.27 53.38-10.9 24.2-10.88 36.5-29.52 36.54-56.07.06-41.27.02-127.42.02-129.75h-190.92v-60.86h252.43c0 1.83.13 127.88-.05 189.29-.1 32.63-9.58 61.98-32.62 85.93-18.65 19.38-41.77 31.23-67.69 37.23-49.16 11.39-97.78 10.58-144.65-10.1-42.28-18.65-68.65-56.95-70.93-101.73z"/></svg>